<svg width="200" height="200" xmlns="http://www.w3.org/2000/svg">

 <g>
  <title>background</title>
  <rect fill="none" id="canvas_background" height="402" width="582" y="-1" x="-1"/>
 </g>
 <g>
  <title>Layer 1</title>
  <circle fill="#580570" id="svg_3" r="7.5" cy="32.8" cx="134.1" class="st1"/>
  <circle fill="#580570" id="svg_4" r="9" cy="139.4" cx="29.9" class="st2"/>
  <path fill="#580570" id="svg_6" d="m130.32157,89.72157c-9.2,0 -11.9,8.8 -12.8,14l0,0.3l-1.2,4.9c4,3.4 8.8,5.5 13.7,5.5c6.4,0 12.2,-5.5 12.5,-12.5c0,-6.7 -5.5,-12.2 -12.2,-12.2z" class="st3"/>
  <path fill="#580570" id="svg_7" d="m171.3,93.4c2.5,-2.2 4.6,-4.9 6.2,-8.1c5.7,-11.1 2.8,-25 -6.9,-32.9c-7,-5.7 -15.7,-7.3 -23.5,-5.4c-10.1,2.4 -20.7,-1.4 -27.4,-9.3c-4.5,-5.3 -10,-9.9 -16.5,-13.6c-28.2,-16.1 -63.6,-7.6 -81.5,19.5c-18.9,28.6 -10.7,67.1 18,85.6l0.1,0.1c5.4,3.4 8.3,9.6 7.6,16c-1.4,12.7 4.3,25.7 15.8,33.1c10.8,6.9 23.4,7.4 34.1,2c9.9,-5 20.9,-7.4 32,-6.9c14.6,0.7 30,-6.5 38.5,-19.8c8.8,-13.7 8.7,-30.8 1,-44.2c-3,-5.3 -2.2,-12.1 2.5,-16.1zm-41.7,33.1c-6.4,0 -11.9,-1.8 -16.8,-4.9l-5.5,25.9l-12.5,0l7.6,-35.7c-3.4,-4.6 -6.4,-9.8 -8.8,-14.6l0,5.5c0,13.4 -10.7,24.1 -23.8,24.1s-23.8,-10.6 -23.8,-24.1l0,-32.3l12.2,0l0,32.3c0,6.4 5.2,11.6 11.6,11.6s11.6,-5.2 11.6,-11.6l0,-32.3l12.2,0c2.4,8.2 6.7,18 12.2,26.5c3.4,-12.2 12.2,-19.8 23.8,-19.8c13.4,0 24.4,11 24.4,24.4c0,14.1 -11,25 -24.4,25z" class="st4"/>
 </g>
</svg>