<?xml version="1.0" encoding="utf-8"?>
<!-- Generator: Adobe Illustrator 15.1.0, SVG Export Plug-In . SVG Version: 6.00 Build 0)  -->
<!DOCTYPE svg PUBLIC "-//W3C//DTD SVG 1.1//EN" "http://www.w3.org/Graphics/SVG/1.1/DTD/svg11.dtd">
<svg version="1.1" id="Layer_1" xmlns="http://www.w3.org/2000/svg" xmlns:xlink="http://www.w3.org/1999/xlink" x="0px" y="0px"
	 width="117.985px" height="72.991px" viewBox="0 0 117.985 72.991" enable-background="new 0 0 117.985 72.991"
	 xml:space="preserve">
<rect x="51.993" y="2" fill-rule="evenodd" clip-rule="evenodd" fill="#ffffff" width="15" height="68.99"/>
<polygon fill="#ffffff" points="44.716,28.997 26.014,28.997 25.996,28.997 25.996,28.998 25.996,43.994 26.018,43.994 
	75.018,43.994 92.988,43.994 92.988,28.997 "/>
<g>
	<path fill="#ffffff" d="M95.988,28.997v14.997v0.001c3.314,0,6.001,2.686,6.001,6c0,3.313-2.687,6-6.001,6v-0.002h-0.039H75.872
		h-5.88v14.998h25.996c11.598-0.001,20.996-9.4,20.996-20.996C116.984,38.396,107.586,28.997,95.988,28.997z"/>
	<rect x="75.872" y="43.994" fill="#ffffff" width="17.116" height="0.001"/>
</g>
<g>
	<path fill="#ffffff" d="M23.004,43.995V28.998v-0.001c-3.314,0-6.001-2.686-6.001-6c0-3.313,2.687-6,6.001-6v0.002h0.039h20.077H49
		V2H23.004c-11.598,0.001-20.996,9.4-20.996,20.996C2.008,34.595,11.407,43.995,23.004,43.995z"/>
	<rect x="26.004" y="28.997" fill="#ffffff" width="17.116" height="0.001"/>
</g>
</svg>
